<svg width="56" height="70" viewBox="0 0 56 70" fill="none" xmlns="http://www.w3.org/2000/svg">
<path d="M27.2246 35.4019C26.9213 29.8512 30.9786 25.2026 36.2629 24.5374C36.0276 24.5039 35.7906 24.4757 35.5508 24.4586C29.3018 24.0127 24.1061 29.1229 24.4479 35.3781C24.7298 40.5375 28.8781 44.7575 34.0322 45.1276C34.7374 45.1782 35.4291 45.1575 36.101 45.0728C31.2802 44.3862 27.4935 40.3228 27.2246 35.4019Z" fill="white"/>
<path d="M35.8835 52.7956C36.0812 52.8128 36.2795 52.828 36.4788 52.8382C47.0449 53.3821 55.7776 44.7806 55.3902 34.2045C55.061 25.215 48.0087 17.7733 39.0482 16.9787C38.0806 16.8929 37.1277 16.886 36.1936 16.9496C36.2196 16.9518 36.2455 16.9527 36.2715 16.955C45.2319 17.7497 52.2845 25.1911 52.6134 34.1808C52.9736 44.019 45.4417 52.1472 35.8835 52.7956Z" fill="white"/>
<path d="M25.9657 19.1231C26.5141 18.8196 27.0805 18.5445 27.6616 18.2984L27.8093 1.00566C27.1547 1.14063 26.5066 1.29372 25.8661 1.46493C25.3725 1.59683 25.0236 2.03576 25.0192 2.54651L24.8831 18.4758C24.8783 19.0345 25.4767 19.3938 25.9657 19.1231Z" fill="white"/>
<path d="M3.07198 34.9315C3.03729 23.5681 8.48596 13.5023 16.9055 7.19543C16.9092 6.75436 16.9114 6.50168 16.9116 6.47823C16.916 5.95846 16.3379 5.64166 15.9032 5.92663C6.48284 12.1026 0.25818 22.7643 0.295236 34.9077C0.351167 53.2476 14.9498 68.4686 33.2727 69.2605C34.1506 69.2985 35.021 69.3017 35.8842 69.275C17.639 68.3987 3.12771 53.216 3.07198 34.9315Z" fill="white"/>
</svg>
